/* XPM */
static char *_97ef19313774a0ae4e5fa2016e6e5cbzdig3JkeMfDe3XDk[] = {
/* columns rows colors chars-per-pixel */
"32 32 138 2 ",
"   c #264311",
".  c #2B4913",
"X  c #2F5116",
"o  c #3E761A",
"O  c #41791D",
"+  c #457E2D",
"@  c #4B6E3C",
"#  c #212445",
"$  c #252749",
"%  c #27294E",
"&  c #28294E",
"*  c #2A2D52",
"=  c #282E59",
"-  c #2E3057",
";  c #2F3158",
":  c #353257",
">  c #3F3355",
",  c #32345C",
"<  c #3E365A",
"1  c #3B3A5F",
"2  c #1E3474",
"3  c #253061",
"4  c #2F3460",
"5  c #27346A",
"6  c #2A3768",
"7  c #2D3C6D",
"8  c #253C64",
"9  c #333660",
"0  c #363962",
"q  c #393C66",
"w  c #323768",
"e  c #3A3D68",
"r  c #203877",
"t  c #2F3D72",
"y  c #223A7C",
"u  c #3D3F71",
"i  c #30494A",
"p  c #2E445C",
"a  c #3E416D",
"s  c #2D4871",
"d  c #324375",
"f  c #5E4356",
"g  c #5B4E5E",
"h  c #5A4B53",
"j  c #64565F",
"k  c #6F535F",
"l  c #4E664E",
"z  c #4C6B4E",
"x  c #7F7A42",
"c  c #4E4665",
"v  c #4F4963",
"b  c #42446E",
"n  c #4E4A6E",
"m  c #50516C",
"M  c #444774",
"N  c #6A4D62",
"B  c #6F5165",
"V  c #795A6F",
"C  c #615775",
"Z  c #5E657F",
"A  c #A54F3F",
"S  c #9E574A",
"D  c #905C5B",
"F  c #A65141",
"G  c #956D42",
"H  c #867D44",
"J  c #95605F",
"K  c #BC6448",
"L  c #A17A4D",
"P  c #A96356",
"I  c #A06A5D",
"U  c #B66B5A",
"Y  c #A97D52",
"T  c #BA7F55",
"R  c #976361",
"E  c #498B1E",
"W  c #4C931F",
"Q  c #49822F",
"!  c #55822D",
"~  c #4F9F22",
"^  c #4E932B",
"/  c #539E23",
"(  c #549C2F",
")  c #4B8134",
"_  c #508537",
"`  c #528E32",
"'  c #56813C",
"]  c #57883C",
"[  c #539031",
"{  c #5D9133",
"}  c #599F33",
"|  c #6C9C3B",
" . c #4FA221",
".. c #53A523",
"X. c #55AA22",
"o. c #59AC27",
"O. c #5CAE29",
"+. c #5DB227",
"@. c #5DB328",
"#. c #5DA933",
"$. c #5BA334",
"%. c #65AF20",
"&. c #62A22F",
"*. c #60AE2C",
"=. c #66B221",
"-. c #62B329",
";. c #64B82C",
":. c #6BBC2F",
">. c #6DB524",
",. c #70B726",
"<. c #71B927",
"1. c #74BD29",
"2. c #78BE2C",
"3. c #61AC36",
"4. c #6EAD38",
"5. c #61B334",
"6. c #6ABA3B",
"7. c #7DC22F",
"8. c #77846D",
"9. c #7F847B",
"0. c #79A464",
"q. c #898045",
"w. c #AA8356",
"e. c #B2855C",
"r. c #80877B",
"t. c #B1847F",
"y. c #8BAF7E",
"u. c #C1875E",
"i. c #233D81",
"p. c #646E8F",
"a. c #727484",
"s. c #757A80",
"d. c #7D8288",
"f. c #808190",
"g. c #B78F86",
"h. c #BB908B",
"j. c #90B383",
"k. c #C59382",
/* pixels */
"M M M M M M M M M M e e e e e e e q 0 q e e a a M M M M M M M M ",
"M M M M M M M M M M e e e e e q q 9 , , e e e e e a M M M M M M ",
"M M M M M M M M M M e e q q 0 , ; * ; , e e e e e e a M M M M M ",
"M M M M M M M M a e , ; u.w.w.L L L L 0 q e e e e e e a M M M M ",
"M M M M M a e e e , & T 3.;.;.@.@.+.+.&.q e e e e e e e b M M M ",
"M M M M a e e e q * , &.<.@.o.o.@.@.@.+.] q e e e e e e a M M M ",
"M M M a e e e e , % } @.o./ ..X.o.o.o.o.O.l q e e e e e a M M M ",
"M M M e e e e q * Y @.o.O.@.....o.o.+.-.+.*.j q e e e e e M M M ",
"M M a e e e e 0 g { @.o.........o.o.o.o.+.+.' c q e e e e M M M ",
"M M a e e e e q > ` / @.1.@.X.X...o.o.+.+./ ` < q e e e a M M M ",
"M M e e e e e C : ` E / ( ( ~  .X.o.../ / E ` : b e e e b M M M ",
"M M e e e e e n : [ ..O y.5.o ..X.O 0.0.O ..` : b e e a M M M M ",
"M M a e e e e e 1 ` +.X 8.8.. >.o.X 8.8.X +.` < q e e M M M M M ",
"M M a e e e q q 1 @ X.W     W ,.@./ . . ..+.{ k 0 e M M M M M M ",
"M M M e e q 0 , , h ..=.X.%...o.2.-.1.-.1.-.Y - q M M M M M M M ",
"M M M a e 0 , , , * ! X.=.X.X.X.O.:.7.7.:.| , 0 e M M M M M M M ",
"M M M M q , , , , - G ^ ..X.E E E W ;.2.$.V e.h.n e M M M M M M ",
"M M M M e 0 , , , , a 6 Q X.+.o.X...o.` s p.j.6.4.b e b M M M M ",
"M M M M e q q q 0 m r.d.Z 9._ Q + ) d.Z t f.#.O.-.e.e a M M M M ",
"M M M a e e e e q z @.} p 7 a.a.s.a.7 N I $ H ! q., a M M M M M ",
"M M M a e e e e v ` o...i 2 2 2 2 2 r R # # & * * , a M M M M M ",
"M M M a e e e q , H ! x 6 2 2 2 2 2 r d $ $ * - ; , e M M M M M ",
"M M M M e e q , * * * % w 2 2 2 2 2 y B * * - , 0 q a M M M M M ",
"M M M M a q 0 * * * * 1 5 2 2 f 8 r i.R * * , q e e a M M M M M ",
"M M M M b e 0 ; * * * U 9 3 = S 4 y i.u * , q e e e a M M M M M ",
"M M M M M a q 9 - * * , F K A # D y y t R q e e e e a M M M M M ",
"M M M M M M a e 9 - * * * k.k.$ J y t e k q e e e e a M M M M M ",
"M M M M M M M M a q , , - & % * U P t.P q e e e e e M M M M M M ",
"M M M M M M M M M M b a q , * * * g.g.g.q e e e e a M M M M M M ",
"M M M M M M M M M M M M M e 9 - - ; , , q e e e a M M M M M M M ",
"M M M M M M M M M M M M M M M e 0 , , , q e a a M M M M M M M M ",
"M M M M M M M M M M M M M M M M b a e e a b M M M M M M M M M M "
};
